<svg width="960" height="560" viewBox="0 0 960 560" fill="none" xmlns="http://www.w3.org/2000/svg">
  <rect width="960" height="560" rx="36" fill="#F4F6FA"/>
  <rect x="126" y="146" width="170" height="250" rx="28" fill="#EEF3FF" stroke="#577590" stroke-width="5"/>
  <rect x="395" y="116" width="170" height="310" rx="28" fill="#EEF3FF" stroke="#577590" stroke-width="5"/>
  <rect x="664" y="146" width="170" height="250" rx="28" fill="#EEF3FF" stroke="#577590" stroke-width="5"/>
  <circle cx="190" cy="210" r="14" fill="#577590"/>
  <circle cx="190" cy="270" r="14" fill="#577590"/>
  <circle cx="190" cy="330" r="14" fill="#577590"/>
  <circle cx="460" cy="180" r="14" fill="#577590"/>
  <circle cx="460" cy="240" r="14" fill="#577590"/>
  <circle cx="460" cy="300" r="14" fill="#577590"/>
  <circle cx="460" cy="360" r="14" fill="#577590"/>
  <circle cx="730" cy="210" r="14" fill="#577590"/>
  <circle cx="730" cy="270" r="14" fill="#577590"/>
  <circle cx="730" cy="330" r="14" fill="#577590"/>
  <path d="M204 210H446" stroke="#A7B8D0" stroke-width="4"/>
  <path d="M204 270H446" stroke="#A7B8D0" stroke-width="4"/>
  <path d="M204 330H446" stroke="#A7B8D0" stroke-width="4"/>
  <path d="M474 180H716" stroke="#A7B8D0" stroke-width="4"/>
  <path d="M474 240H716" stroke="#A7B8D0" stroke-width="4"/>
  <path d="M474 300H716" stroke="#A7B8D0" stroke-width="4"/>
  <text x="149" y="438" fill="#35516E" font-size="28" font-family="Segoe UI, Arial">Input</text>
  <text x="428" y="468" fill="#35516E" font-size="28" font-family="Segoe UI, Arial">Hidden Layers</text>
  <text x="684" y="438" fill="#35516E" font-size="28" font-family="Segoe UI, Arial">Output</text>
</svg>
